<svg version="1.2" xmlns="http://www.w3.org/2000/svg" viewBox="0 0 180 180" width="180" height="180">
	<style>
		.s0 { opacity: 1;fill: #121a2c } 
		.s1 { opacity: 1;fill: #efac3c } 
	</style>
	<g id="Background">
		<path id="Path 0" class="s0" d="m72 1.92c-4.67 1.04-10.52 2.63-13 3.53-2.48 0.9-7.88 3.46-12 5.69-4.13 2.22-10.6 6.59-14.39 9.7-3.79 3.11-9.58 9.04-12.86 13.16-3.29 4.13-7.95 11.55-10.37 16.5-2.42 4.95-5.37 12.6-6.57 17-1.75 6.48-2.16 10.76-2.16 22.5 0 11.74 0.41 16.02 2.16 22.5 1.2 4.4 4.15 12.05 6.57 17 2.42 4.95 7.08 12.38 10.35 16.5 3.28 4.13 9.52 10.36 13.86 13.86 4.35 3.5 11.96 8.34 16.91 10.76 4.95 2.42 12.6 5.37 17 6.57 6.48 1.75 10.76 2.16 22.5 2.16 11.74 0 16.02-0.41 22.5-2.16 4.4-1.2 12.05-4.15 17-6.57 4.95-2.42 12.56-7.26 16.91-10.76 4.34-3.5 10.58-9.73 13.86-13.86 3.27-4.13 7.93-11.55 10.35-16.5 2.42-4.95 5.37-12.6 6.57-17 1.75-6.48 2.16-10.76 2.16-22.5 0-11.74-0.41-16.02-2.16-22.5-1.2-4.4-4.15-12.05-6.57-17-2.42-4.95-7.08-12.38-10.35-16.5-3.28-4.13-9.52-10.36-13.86-13.86-4.35-3.5-11.96-8.34-16.91-10.76-4.95-2.42-12.6-5.34-17-6.49-5.18-1.34-12.24-2.22-20-2.48-9.28-0.31-13.92 0.03-20.5 1.51z"/>
		<path id="Path 1" class="s1" d="m83 27.92c-1.72 1.77-2.86 4.04-2.89 5.75-0.04 2.34-0.79 3.18-4.33 4.82-2.35 1.09-6.47 4.01-9.14 6.5-2.68 2.48-5.88 6.53-7.12 9.01-1.23 2.47-2.73 6.75-3.33 9.5-0.59 2.75-1.36 9.28-1.71 14.5-0.34 5.22-1.36 12.42-2.26 16-1.24 4.95-2.99 8.29-7.34 14-3.13 4.12-6.19 8.74-6.79 10.25-0.6 1.51-1.1 4.44-1.11 6.5-0.01 2.06 0.63 4.65 1.42 5.75 1.4 1.95 2.76 2.01 50.27 2.31 47.97 0.3 48.88 0.27 51.58-1.75 2.16-1.62 2.75-2.87 2.73-5.81-0.01-2.06-0.84-5.55-1.83-7.75-1-2.2-2.45-4.67-3.23-5.5-0.78-0.83-2.59-3.08-4.03-5-1.43-1.92-3.51-5.3-4.61-7.5-1.11-2.2-2.29-5.58-2.64-7.5-0.35-1.92-1.08-9.24-1.63-16.25-0.62-7.84-1.76-14.77-2.95-18-1.06-2.89-3.91-7.5-6.33-10.25-2.42-2.75-6.95-6.35-10.06-8-4.78-2.53-5.67-3.43-5.67-5.75 0-1.72-1.12-3.87-3-5.75-2.35-2.35-3.88-3-7.08-3-3.19 0-4.69 0.64-6.92 2.92zm-8.62 114.33c0.38 1.79 1.35 4.26 2.16 5.5 0.8 1.24 2.92 3.15 4.71 4.25 1.79 1.1 4.83 2.27 6.75 2.6 2.17 0.37 5.11 0 7.75-1q4.25-1.6 6.69-5.35c1.34-2.06 2.69-4.99 3-6.5l0.56-2.75h-32.31z"/>
	</g>
</svg>